<svg xmlns="http://www.w3.org/2000/svg" width="140" height="108" viewBox="0 0 140 108"><g><g><g/><g><g><g><path fill="#fff" fill-opacity=".4" d="M122.909.73c9.444 0 17.12 7.705 17.091 17.149v72.274c0 9.443-7.676 17.12-17.12 17.12H17.12C7.676 107.273 0 99.596 0 90.153V17.85C0 8.406 7.676.73 17.12.73zm9.27 89.423V17.879c0-5.128-4.172-9.299-9.299-9.299H17.12c-5.127 0-9.299 4.171-9.299 9.299v72.274c0 5.127 4.172 9.298 9.299 9.298h105.789c5.127 0 9.299-4.171 9.299-9.298z"/></g><g><path fill="#fff" fill-opacity=".4" d="M88.293 53.106l34.24-30.706a3.93 3.93 0 0 0 .289-5.533 3.93 3.93 0 0 0-5.533-.29l-47.217 42.38-9.211-8.227c-.03-.029-.058-.058-.058-.087a5.777 5.777 0 0 0-.638-.55L22.681 16.55a3.906 3.906 0 0 0-5.532.318 3.906 3.906 0 0 0 .318 5.533l34.645 30.966-34.5 32.3a3.926 3.926 0 0 0-.174 5.532 4.001 4.001 0 0 0 2.868 1.246c.956 0 1.912-.348 2.665-1.043l35.022-32.763 9.501 8.488c.753.666 1.68.985 2.607.985.927 0 1.883-.348 2.607-1.014l9.762-8.748 34.819 33.08a3.887 3.887 0 0 0 2.694 1.072 3.906 3.906 0 0 0 2.839-1.216c1.478-1.564 1.42-4.056-.145-5.533z"/></g></g></g></g></g></svg>