<svg xmlns="http://www.w3.org/2000/svg" width="189" height="100" viewBox="0 0 189 100"><g><g><g><g><path fill="#fff" fill-opacity=".4" d="M52.86 86.992C52.86 94.309 47.169 100 39.85 100c-7.32 0-13.012-5.691-13.012-13.008 0-7.317 5.693-13.008 13.012-13.008 7.32 0 13.012 5.69 13.012 13.008zM135 15.854h-24.398V0h6.506zM0 0h102.469v89.43H61.806s-2.846-24.39-20.33-24.39c-23.585 0-24.398 24.39-24.398 24.39H.813zm167.528 86.992c0 7.317-5.692 13.008-13.012 13.008-7.319 0-13.012-5.691-13.012-13.008 0-7.317 5.693-13.008 13.012-13.008 6.913 0 13.012 5.69 13.012 13.008zm21.145-28.049l-.814 30.488h-15.045s.407-20.325-17.484-20.325c-23.584 0-20.331 20.325-20.331 20.325h-24.398V20.325h28.464zm-53.674 6.098h-16.265v8.13h16.265zm40.662-6.505l-42.289-32.52h-16.265V48.78l16.265 9.756z"/></g></g></g></g></svg>